<?xml version="1.0" encoding="utf-8"?>
<!-- Generator: Adobe Illustrator 16.0.4, SVG Export Plug-In . SVG Version: 6.00 Build 0)  -->
<!DOCTYPE svg PUBLIC "-//W3C//DTD SVG 1.1//EN" "http://www.w3.org/Graphics/SVG/1.1/DTD/svg11.dtd">
<svg version="1.1" id="Layer_1" xmlns="http://www.w3.org/2000/svg" xmlns:xlink="http://www.w3.org/1999/xlink" x="0px" y="0px"
	 width="94.352px" height="10px" viewBox="0 0 94.352 10" enable-background="new 0 0 94.352 10" xml:space="preserve">
<g>
	<path fill="#FFFFFF" d="M5.574,9.61V5.917H2.656V9.61H0.007V0.243h2.649v3.412h2.917V0.243h2.649V9.61H5.574z"/>
	<path fill="#FFFFFF" d="M18.539,9.61l-0.508-1.646h-2.81L14.712,9.61h-2.783l3.399-9.367h2.623L21.35,9.61H18.539z M17.228,5.288
		c-0.334-1.205-0.482-1.713-0.603-2.342c-0.12,0.629-0.268,1.151-0.602,2.342L15.85,5.903h1.552L17.228,5.288z"/>
	<path fill="#FFFFFF" d="M32.842,9.61h-2.396l-0.428-2.034c-0.308-1.445-0.589-3.198-0.642-3.881
		c-0.054,0.683-0.334,2.436-0.643,3.881L28.305,9.61h-2.369l-2.235-9.367h2.677l0.254,1.565c0.214,1.325,0.469,2.958,0.562,4.068
		c0.107-1.098,0.402-2.717,0.696-4.055l0.321-1.579h2.382l0.321,1.579c0.294,1.338,0.589,2.957,0.696,4.055
		c0.093-1.111,0.348-2.744,0.562-4.068l0.254-1.565h2.65L32.842,9.61z"/>
	<path fill="#FFFFFF" d="M44.469,9.61l-1.954-3.987l-0.964,1.164V9.61h-2.649V0.243h2.649V1.34c0,0.79-0.013,1.633-0.04,2.315
		c0.388-0.615,1.205-1.699,1.807-2.462l0.75-0.95h3.158l-2.824,3.305l3.145,6.062H44.469z"/>
	<path fill="#FFFFFF" d="M54.812,9.758c-2.355,0-4.082-1.178-4.082-4.148V0.243h2.65v5.366c0,1.15,0.455,1.859,1.472,1.859
		s1.445-0.709,1.445-1.859V0.243h2.65v5.366C58.948,8.58,57.168,9.758,54.812,9.758z"/>
	<path fill="#FFFFFF" d="M63.161,9.61V0.243h2.623v7.105h4.148V9.61H63.161z"/>
	<path fill="#FFFFFF" d="M79.807,9.61l-0.508-1.646h-2.81L75.979,9.61h-2.783l3.399-9.367h2.623l3.399,9.367H79.807z M78.496,5.288
		c-0.334-1.205-0.482-1.713-0.603-2.342c-0.12,0.629-0.268,1.151-0.602,2.342l-0.174,0.615h1.552L78.496,5.288z"/>
	<path fill="#FFFFFF" d="M91.448,9.61l-1.525-3.158h-1.044V9.61h-2.556V0.243h4.188c2.195,0,3.653,0.83,3.653,3.051
		c0,1.405-0.656,2.274-1.686,2.743l1.874,3.573H91.448z M90.444,2.357h-1.566v2.047h1.526c0.843,0,1.178-0.375,1.178-1.044
		C91.582,2.772,91.261,2.357,90.444,2.357z"/>
</g>
</svg>
