<?xml version="1.0" encoding="utf-8"?>
<!-- Generator: Adobe Illustrator 16.0.1, SVG Export Plug-In . SVG Version: 6.00 Build 0)  -->
<!DOCTYPE svg PUBLIC "-//W3C//DTD SVG 1.1//EN" "http://www.w3.org/Graphics/SVG/1.1/DTD/svg11.dtd">
<svg version="1.1" id="Layer_1" xmlns="http://www.w3.org/2000/svg" xmlns:xlink="http://www.w3.org/1999/xlink" x="0px" y="0px"
	 width="256px" height="256px" viewBox="0 0 256 256" enable-background="new 0 0 256 256" xml:space="preserve">
<g>
	<path opacity="0.7" fill="#FFFFFF" d="M103.398,115.667c-1.877-0.563-3.801-1.028-5.735-1.46c-0.964-0.218-1.939-0.423-2.912-0.617
		c-0.973-0.201-1.95-0.394-2.924-0.57c-0.486-0.086-0.979-0.174-1.451-0.245l-1.474-0.196c-0.994-0.132-1.997-0.283-2.976-0.366
		c-0.99-0.092-1.967-0.212-2.969-0.283l-2.993-0.218c-2.005-0.1-4.012-0.206-6.029-0.245c-1.006-0.036-2.014-0.047-3.025-0.055
		c-1.01-0.009-2.023-0.025-3.036-0.012c-2.017,0.002-4.083,0.037-6.071,0.09l-3.07,0.133l-2.999,0.232l-3.024,0.32
		c-1.015,0.116-2.018,0.257-3.03,0.384c-2.02,0.287-4.041,0.607-6.062,0.968c-2.025,0.363-4.052,0.754-6.079,1.167
		c-4.077,0.819-8.15,1.675-12.195,2.666c-2.026,0.498-4.044,1.027-6.035,1.613c-1.032,0.307-2.061,0.629-3.069,0.976
		c0.371,0.114,0.754,0.216,1.143,0.302c1.411,0.32,2.909,0.505,4.446,0.71c0.766,0.106,1.547,0.213,2.343,0.35l1.153,0.215
		l0.502,0.075l0.526,0.058c1.426,0.136,2.917,0.096,4.414,0.026c2.998-0.158,6.022-0.555,9.082-0.859
		c1.527-0.148,3.065-0.283,4.635-0.308c0.802-0.011,1.538,0.019,2.303,0.027l2.28,0.048c1.523,0.039,3.039,0.094,4.555,0.169
		l0.071,0.004c0.121-0.034,0.244-0.074,0.365-0.106l0.377-0.101l0.41-0.1c0.278-0.073,0.549-0.118,0.824-0.176
		c0.543-0.101,1.083-0.177,1.617-0.237c1.073-0.119,2.129-0.177,3.178-0.212c2.087-0.064,4.141-0.024,6.184,0.027
		c2.036,0.062,4.055,0.109,6.071,0.204c2.009,0.103,4.017,0.379,6.023,0.592c2.001,0.231,4.011,0.323,6,0.221l2.22-0.118
		l-2.101,0.635c-1.449,0.436-2.918,0.602-4.391,0.756c-1.473,0.15-2.951,0.238-4.432,0.305c-2.971,0.125-5.951,0.156-8.944,0.116
		c-1.188-0.025-2.377-0.069-3.575-0.149c-0.968,0.014-1.933,0.039-2.886,0.089c-0.991,0.052-1.97,0.128-2.922,0.255
		c-0.479,0.062-0.945,0.142-1.397,0.234c-0.225,0.052-0.454,0.095-0.668,0.157l-0.329,0.088l-0.357,0.107
		c-0.934,0.279-1.856,0.586-2.665,0.954c-0.165,0.072-0.323,0.153-0.472,0.231c0.33,0.138,0.692,0.27,1.072,0.392
		c0.899,0.281,1.859,0.515,2.826,0.726c0.962,0.209,1.969,0.401,2.922,0.558c0.508,0.084,1.014,0.164,1.48,0.22
		c0.466,0.067,0.969,0.112,1.453,0.164c1.953,0.191,3.927,0.271,5.906,0.249c1.973-0.025,3.948-0.116,5.917-0.294
		c3.927-0.359,7.84-0.925,11.689-1.708c1.924-0.389,3.832-0.816,5.724-1.294l1.417-0.362l1.395-0.377
		c0.971-0.249,1.839-0.529,2.756-0.789c1.829-0.565,3.649-1.192,5.515-1.781c1.852-0.596,3.747-1.139,5.685-1.52l0.156-0.24
		c0.174-0.426-0.069-0.866-0.612-1.306c-0.306-0.199-0.641-0.378-0.993-0.535C105.264,116.251,104.331,115.957,103.398,115.667z"/>
	<path opacity="0.7" fill="#FFFFFF" d="M141.154,129.271c0.789,0.537,1.525,1.077,2.37,1.619l1.202,0.798l1.229,0.793
		c1.646,1.049,3.321,2.058,5.024,3.032c3.404,1.959,6.938,3.73,10.551,5.311c1.812,0.792,3.661,1.498,5.522,2.147
		c1.871,0.646,3.77,1.191,5.685,1.627c0.477,0.103,0.965,0.222,1.431,0.303c0.459,0.096,0.964,0.178,1.471,0.26
		c0.956,0.149,1.973,0.288,2.949,0.394c0.985,0.105,1.971,0.186,2.911,0.2c0.396,0.006,0.782-0.004,1.14-0.032
		c-0.117-0.121-0.238-0.247-0.373-0.367c-0.651-0.604-1.429-1.188-2.229-1.747l-0.306-0.214l-0.283-0.187
		c-0.185-0.126-0.386-0.238-0.581-0.362c-0.401-0.229-0.82-0.45-1.252-0.662c-0.863-0.418-1.771-0.801-2.693-1.164
		c-0.888-0.348-1.792-0.675-2.703-0.992c-1.165-0.302-2.312-0.638-3.447-0.99c-2.854-0.904-5.671-1.875-8.451-2.931
		c-1.386-0.531-2.762-1.083-4.113-1.687c-1.347-0.612-2.687-1.232-3.923-2.104l-1.791-1.266l2.067,0.812
		c1.854,0.725,3.79,1.271,5.765,1.684c1.969,0.431,3.96,0.802,5.9,1.339c1.941,0.547,3.874,1.138,5.826,1.724
		c1.953,0.594,3.916,1.205,5.876,1.927c0.982,0.363,1.968,0.751,2.944,1.203c0.492,0.226,0.977,0.468,1.461,0.735
		c0.243,0.14,0.486,0.269,0.727,0.424l0.36,0.227l0.324,0.214c0.104,0.068,0.209,0.146,0.313,0.216l0.068,0.019
		c1.463,0.408,2.919,0.833,4.375,1.278l2.18,0.672c0.729,0.234,1.437,0.439,2.192,0.703c1.484,0.518,2.9,1.131,4.305,1.754
		c2.806,1.253,5.55,2.584,8.346,3.681c1.398,0.537,2.8,1.049,4.197,1.37l0.516,0.109l0.499,0.088l1.162,0.161
		c0.8,0.119,1.573,0.265,2.335,0.405c1.521,0.291,3.004,0.591,4.442,0.729c0.396,0.041,0.789,0.063,1.176,0.07
		c-0.847-0.646-1.718-1.275-2.6-1.891c-1.704-1.185-3.453-2.322-5.219-3.434c-3.524-2.22-7.12-4.316-10.73-6.379
		c-1.793-1.033-3.592-2.044-5.399-3.027c-1.805-0.98-3.619-1.922-5.446-2.833c-0.92-0.438-1.831-0.891-2.754-1.321l-2.769-1.257
		l-2.772-1.167l-2.87-1.094c-1.869-0.677-3.82-1.363-5.733-2.001c-0.956-0.333-1.923-0.639-2.887-0.946
		c-0.96-0.312-1.92-0.619-2.886-0.905c-1.927-0.599-3.864-1.131-5.799-1.67l-2.91-0.737c-0.969-0.247-1.936-0.442-2.902-0.668
		c-0.957-0.23-1.957-0.402-2.941-0.591l-1.457-0.28c-0.474-0.082-0.969-0.153-1.456-0.222c-0.979-0.141-1.97-0.266-2.954-0.384
		c-0.986-0.123-1.975-0.236-2.958-0.334c-1.973-0.199-3.943-0.364-5.9-0.421c-0.979-0.02-1.958-0.038-2.906,0.057
		c-0.383,0.038-0.757,0.103-1.109,0.195c-0.655,0.247-1.027,0.587-0.994,1.047l0.072,0.277c1.718,0.973,3.349,2.086,4.916,3.236
		C138.068,126.99,139.6,128.159,141.154,129.271z"/>
</g>
<path opacity="0.5" fill="#E1EEF4" d="M61.607,110.419c-8.813,0.136-17.159,1.555-25.87,3.322
	c-6.244,1.27-17.436,3.687-23.236,6.217c2.445,2.235,8.366,2.246,11.77,2.893c5.541,1.048,14.728-1.271,20.51-1.327
	c3.973-0.039,7.865-0.036,11.773,0.181c-0.735,0.107-1.425,0.236-2.038,0.405c-1.341,0.375-5.464,1.524-5.22,2.838
	c0.283,1.503,7.217,2.74,8.572,2.986c10.585,1.904,23.809-0.312,34.616-3.312c5.842-1.622,9.394-3.66,15.101-5.901
	c-1.938,0.381-3.833,0.923-5.685,1.52c-1.866,0.589-3.687,1.216-5.515,1.781c-0.917,0.259-1.786,0.54-2.756,0.789l-1.395,0.377
	l-1.417,0.362c-1.893,0.478-3.8,0.905-5.724,1.294c-3.849,0.783-7.762,1.35-11.689,1.708c-1.969,0.178-3.945,0.269-5.917,0.294
	c-1.979,0.023-3.953-0.058-5.906-0.249c-0.483-0.052-0.986-0.096-1.453-0.164c-0.466-0.057-0.972-0.136-1.48-0.22
	c-0.953-0.156-1.96-0.348-2.922-0.558c-0.966-0.21-1.927-0.445-2.826-0.726c-0.38-0.122-0.742-0.254-1.072-0.392
	c0.148-0.078,0.307-0.159,0.472-0.231c0.809-0.368,1.731-0.675,2.665-0.954l0.357-0.107l0.329-0.088
	c0.214-0.062,0.443-0.105,0.668-0.157c0.453-0.092,0.919-0.172,1.397-0.234c0.952-0.127,1.931-0.203,2.922-0.255
	c0.954-0.05,1.918-0.075,2.886-0.089c1.197,0.08,2.387,0.125,3.575,0.149c2.993,0.041,5.973,0.009,8.944-0.116
	c1.481-0.067,2.959-0.155,4.432-0.305c1.473-0.154,2.942-0.32,4.391-0.756l2.101-0.635l-2.22,0.118c-1.989,0.102-3.999,0.01-6-0.221
	c-2.007-0.213-4.014-0.489-6.023-0.592c-2.016-0.094-4.035-0.142-6.071-0.204c-2.043-0.052-4.097-0.092-6.184-0.027
	c-1.049,0.035-2.105,0.093-3.178,0.212c-0.533,0.06-1.073,0.136-1.617,0.237c-0.275,0.058-0.546,0.103-0.824,0.176l-0.41,0.1
	l-0.377,0.101c-0.121,0.032-0.244,0.072-0.365,0.106l-0.071-0.004c-1.516-0.075-3.032-0.13-4.555-0.169l-2.28-0.048
	c-0.765-0.008-1.501-0.038-2.303-0.027c-1.57,0.024-3.108,0.159-4.635,0.308c-3.059,0.304-6.084,0.701-9.082,0.859
	c-1.497,0.07-2.988,0.11-4.414-0.026l-0.526-0.058l-0.502-0.075l-1.153-0.215c-0.795-0.137-1.577-0.244-2.343-0.35
	c-1.537-0.205-3.035-0.39-4.446-0.71c-0.389-0.086-0.772-0.188-1.143-0.302c1.008-0.347,2.037-0.669,3.069-0.976
	c1.991-0.586,4.009-1.115,6.035-1.613c4.045-0.991,8.118-1.847,12.195-2.666c2.027-0.413,4.054-0.804,6.079-1.167
	c2.021-0.361,4.042-0.681,6.062-0.968c1.012-0.127,2.015-0.268,3.03-0.384l3.024-0.32l2.999-0.232l3.07-0.133
	c1.988-0.053,4.055-0.088,6.071-0.09c1.013-0.013,2.026,0.003,3.036,0.012c1.011,0.008,2.019,0.019,3.025,0.055
	c2.017,0.039,4.024,0.145,6.029,0.245l2.993,0.218c1.001,0.071,1.979,0.191,2.969,0.283c0.979,0.083,1.982,0.234,2.976,0.366
	l1.474,0.196c0.471,0.071,0.965,0.159,1.451,0.245c0.974,0.176,1.951,0.37,2.924,0.57c0.973,0.193,1.948,0.398,2.912,0.617
	c1.934,0.433,3.857,0.897,5.735,1.46c0.932,0.291,1.865,0.584,2.737,0.974c0.352,0.156,0.687,0.335,0.993,0.535
	c-2.967-2.397-14.898-4.82-17.032-5.167C81.145,110.548,70.648,110.282,61.607,110.419z"/>
<g>
	<path fill="#293644" d="M108.399,117.427c-0.129-0.282-0.32-0.503-0.522-0.693c-0.402-0.377-0.844-0.664-1.291-0.928
		c-0.897-0.522-1.825-0.948-2.765-1.321c-1.889-0.759-3.815-1.359-5.752-1.912c-1.944-0.545-3.903-1.031-5.885-1.45
		c-0.498-0.106-0.989-0.209-1.511-0.303l-1.508-0.236c-0.994-0.149-1.979-0.317-3.002-0.425c-1.013-0.118-2.035-0.26-3.047-0.353
		l-3.041-0.28c-2.031-0.144-4.066-0.289-6.107-0.368c-1.02-0.057-2.042-0.087-3.063-0.116c-1.023-0.031-2.045-0.065-3.07-0.072
		c-2.06-0.039-4.081-0.044-6.182-0.029l-3.077,0.073l-3.143,0.182l-3.114,0.274c-1.038,0.112-2.067,0.25-3.105,0.372
		c-2.069,0.281-4.135,0.596-6.187,0.952c-2.058,0.353-4.111,0.736-6.16,1.14c-2.057,0.396-4.099,0.842-6.152,1.289
		c-2.056,0.454-4.113,0.932-6.165,1.443c-2.059,0.515-4.116,1.062-6.168,1.676c-2.058,0.62-4.105,1.292-6.149,2.167l-1.957,0.841
		l1.547,1.371c0.763,0.672,1.618,1.098,2.446,1.414c0.831,0.315,1.657,0.525,2.468,0.691c1.624,0.33,3.211,0.501,4.75,0.66
		c0.771,0.076,1.53,0.15,2.258,0.248l1.128,0.17c0.198,0.03,0.435,0.053,0.649,0.078l0.629,0.05c1.651,0.1,3.25,0.02,4.82-0.13
		c3.131-0.305,6.148-0.842,9.144-1.271c1.496-0.214,2.984-0.409,4.452-0.496c1.469-0.066,3.022-0.104,4.52-0.143
		c0.404-0.008,0.806-0.006,1.211-0.012c-0.314,0.154-0.633,0.331-0.967,0.569c-0.289,0.217-0.612,0.468-0.916,0.945
		c-0.147,0.25-0.293,0.558-0.321,0.957c-0.012,0.097-0.009,0.193-0.002,0.295l0.014,0.149l0.01,0.072l0.025,0.116l0.013,0.043
		c0.004,0.02,0.035,0.119,0.053,0.172c0.054,0.146,0.093,0.221,0.134,0.297c0.363,0.612,0.728,0.835,1.033,1.058
		c0.314,0.21,0.604,0.356,0.884,0.491c0.562,0.261,1.089,0.455,1.622,0.633c1.054,0.345,2.086,0.612,3.119,0.853
		c1.042,0.24,2.046,0.446,3.108,0.639c0.504,0.088,1.006,0.177,1.56,0.252c0.544,0.084,1.059,0.139,1.59,0.202
		c2.111,0.224,4.218,0.296,6.311,0.276c2.085-0.017,4.157-0.155,6.208-0.354c1.027-0.1,2.046-0.225,3.06-0.354
		c1.013-0.147,2.021-0.299,3.024-0.475c2.005-0.342,3.984-0.748,5.948-1.19c1.962-0.449,3.902-0.938,5.823-1.473l1.436-0.406
		l0.181-0.053l0.2-0.063l0.35-0.112l0.703-0.228c0.921-0.281,1.885-0.671,2.819-1.034c1.838-0.768,3.589-1.65,5.281-2.594
		c1.686-0.948,3.344-1.9,4.979-2.945c-5.708,2.241-9.259,4.279-15.101,5.901c-10.807,2.999-24.031,5.216-34.616,3.312
		c-1.355-0.246-8.289-1.483-8.572-2.986c-0.244-1.313,3.879-2.463,5.22-2.838c0.613-0.169,1.303-0.298,2.038-0.405
		c-3.908-0.217-7.801-0.219-11.773-0.181c-5.782,0.056-14.969,2.375-20.51,1.327c-3.403-0.646-9.325-0.657-11.77-2.893
		c5.801-2.53,16.992-4.947,23.236-6.217c8.711-1.767,17.057-3.186,25.87-3.322c9.042-0.138,19.538,0.129,28.489,1.588
		c2.134,0.348,14.065,2.771,17.032,5.167c0.069,0.046,0.148,0.087,0.213,0.135c0.168,0.131,0.325,0.27,0.421,0.412
		c0.051,0.072,0.085,0.142,0.098,0.21c0.009,0.037,0.012,0.067,0.015,0.088c0.012,0.014-0.021,0.102-0.027,0.151l0.582,0.183
		c0.021-0.064,0.045-0.083,0.063-0.189c0.026-0.094,0.032-0.184,0.028-0.265C108.517,117.73,108.468,117.569,108.399,117.427z"/>
	<path fill="#293644" d="M222.113,152.499c-1.663-1.479-3.395-2.758-5.15-3.998c-1.754-1.231-3.533-2.399-5.323-3.535
		c-1.788-1.137-3.589-2.237-5.396-3.318c-1.807-1.073-3.605-2.142-5.432-3.162c-1.815-1.033-3.645-2.044-5.485-3.028
		c-1.834-0.984-3.693-1.937-5.569-2.854c-0.944-0.444-1.879-0.899-2.83-1.333l-2.87-1.244l-2.924-1.163l-2.895-1.042
		c-1.99-0.679-3.91-1.309-5.877-1.923c-0.974-0.318-1.954-0.607-2.934-0.9c-0.979-0.295-1.959-0.59-2.945-0.859
		c-1.962-0.567-3.937-1.072-5.911-1.576l-2.972-0.695c-0.991-0.23-2.005-0.417-3.005-0.626c-1.002-0.221-1.991-0.373-2.98-0.543
		l-1.505-0.254c-0.526-0.074-1.023-0.131-1.53-0.188c-2.011-0.228-4.026-0.385-6.041-0.479c-2.016-0.088-4.033-0.126-6.062-0.003
		c-1.011,0.059-2.025,0.168-3.043,0.381c-0.505,0.11-1.017,0.242-1.519,0.475c-0.248,0.117-0.501,0.267-0.716,0.491
		c-0.107,0.114-0.204,0.251-0.263,0.412c-0.029,0.074-0.052,0.162-0.058,0.26c-0.016,0.105,0.001,0.13,0.003,0.2l0.61,0.011
		c0.006-0.049,0.003-0.144,0.021-0.154c0.009-0.019,0.02-0.045,0.038-0.077c0.037-0.062,0.088-0.118,0.158-0.17
		c0.139-0.104,0.331-0.187,0.534-0.257c0.077-0.027,0.165-0.04,0.246-0.061c3.573-1.338,15.655,0.129,17.791,0.473
		c8.955,1.439,18.998,4.499,27.533,7.483c8.32,2.911,15.791,6.891,23.502,11.317c5.523,3.173,15.379,9.002,20.085,13.232
		c-3.025,1.35-8.648-0.509-12.08-0.972c-5.59-0.753-13.575-5.852-19.045-7.729c-3.756-1.291-7.451-2.518-11.229-3.546
		c0.665,0.333,1.28,0.676,1.809,1.029c1.152,0.775,4.702,3.17,4.059,4.339c-0.742,1.339-7.717,0.323-9.079,0.127
		c-10.642-1.532-22.493-7.809-31.8-14.063c-5.033-3.385-7.759-6.439-12.467-10.367c1.223,1.507,2.496,2.935,3.797,4.364
		c1.305,1.431,2.688,2.82,4.19,4.129c0.773,0.639,1.563,1.313,2.351,1.872l0.594,0.437l0.296,0.216l0.171,0.126l0.153,0.105
		l1.234,0.837c1.655,1.116,3.341,2.191,5.06,3.235c1.725,1.041,3.477,2.051,5.271,3.008c0.894,0.483,1.803,0.945,2.719,1.405
		c0.922,0.442,1.851,0.884,2.791,1.301c1.883,0.839,3.809,1.621,5.778,2.298c1.981,0.677,4.002,1.274,6.077,1.729
		c0.521,0.104,1.03,0.219,1.57,0.309c0.553,0.104,1.057,0.178,1.562,0.253c1.07,0.152,2.089,0.273,3.152,0.374
		c1.054,0.098,2.119,0.172,3.229,0.175c0.558,0.001,1.124-0.015,1.738-0.087c0.308-0.039,0.628-0.088,0.991-0.187
		c0.361-0.113,0.779-0.213,1.316-0.678c0.062-0.06,0.124-0.117,0.224-0.24c0.033-0.044,0.093-0.129,0.103-0.146l0.026-0.038
		l0.062-0.103l0.031-0.066l0.059-0.138c0.041-0.094,0.071-0.181,0.093-0.278c0.101-0.388,0.06-0.724,0-1.01
		c-0.14-0.549-0.366-0.888-0.574-1.182c-0.243-0.334-0.489-0.606-0.739-0.852c0.382,0.135,0.768,0.26,1.149,0.396
		c1.406,0.51,2.87,1.039,4.244,1.563c1.365,0.546,2.715,1.2,4.066,1.875c2.711,1.352,5.402,2.815,8.275,4.092
		c1.442,0.638,2.934,1.218,4.534,1.646l0.61,0.15c0.214,0.044,0.446,0.096,0.642,0.131l1.126,0.194
		c0.719,0.139,1.466,0.306,2.221,0.478c1.511,0.335,3.07,0.673,4.716,0.873c0.82,0.096,1.67,0.161,2.557,0.123
		c0.889-0.036,1.835-0.173,2.769-0.569l1.902-0.812L222.113,152.499z"/>
</g>
<path opacity="0.5" fill="#E1EEF4" d="M175.836,147.036c1.362,0.196,8.337,1.212,9.079-0.127c0.644-1.169-2.906-3.563-4.059-4.339
	c-0.528-0.354-1.144-0.696-1.809-1.029c3.778,1.028,7.474,2.255,11.229,3.546c5.47,1.878,13.455,6.977,19.045,7.729
	c3.432,0.463,9.055,2.321,12.08,0.972c-4.706-4.23-14.562-10.06-20.085-13.232c-7.711-4.427-15.182-8.406-23.502-11.317
	c-8.535-2.985-18.578-6.044-27.533-7.483c-2.136-0.344-14.218-1.811-17.791-0.473c0.353-0.092,0.727-0.157,1.109-0.195
	c0.948-0.095,1.928-0.077,2.906-0.057c1.957,0.058,3.928,0.222,5.9,0.421c0.983,0.098,1.972,0.211,2.958,0.334
	c0.984,0.118,1.975,0.243,2.954,0.384c0.487,0.069,0.982,0.141,1.456,0.222l1.457,0.28c0.984,0.189,1.984,0.361,2.941,0.591
	c0.967,0.227,1.934,0.422,2.902,0.668l2.91,0.737c1.935,0.539,3.872,1.072,5.799,1.67c0.966,0.286,1.926,0.593,2.886,0.905
	c0.964,0.307,1.931,0.613,2.887,0.946c1.913,0.639,3.864,1.325,5.733,2.001l2.87,1.094l2.772,1.167l2.769,1.257
	c0.923,0.431,1.834,0.883,2.754,1.321c1.827,0.911,3.642,1.853,5.446,2.833c1.808,0.983,3.606,1.994,5.399,3.027
	c3.61,2.062,7.206,4.159,10.73,6.379c1.766,1.111,3.515,2.249,5.219,3.434c0.882,0.615,1.753,1.244,2.6,1.891
	c-0.387-0.007-0.78-0.029-1.176-0.07c-1.438-0.139-2.921-0.438-4.442-0.729c-0.762-0.141-1.535-0.286-2.335-0.405l-1.162-0.161
	l-0.499-0.088l-0.516-0.109c-1.397-0.321-2.799-0.833-4.197-1.37c-2.796-1.097-5.54-2.428-8.346-3.681
	c-1.404-0.623-2.82-1.236-4.305-1.754c-0.756-0.264-1.464-0.469-2.192-0.703l-2.18-0.672c-1.456-0.445-2.912-0.87-4.375-1.278
	l-0.068-0.019c-0.104-0.07-0.209-0.147-0.313-0.216l-0.324-0.214l-0.36-0.227c-0.24-0.155-0.483-0.284-0.727-0.424
	c-0.484-0.268-0.969-0.51-1.461-0.735c-0.977-0.452-1.962-0.84-2.944-1.203c-1.96-0.722-3.923-1.333-5.876-1.927
	c-1.952-0.586-3.885-1.177-5.826-1.724c-1.94-0.537-3.932-0.908-5.9-1.339c-1.975-0.412-3.91-0.959-5.765-1.684l-2.067-0.812
	l1.791,1.266c1.236,0.872,2.576,1.492,3.923,2.104c1.352,0.604,2.728,1.155,4.113,1.687c2.78,1.056,5.597,2.026,8.451,2.931
	c1.136,0.353,2.282,0.688,3.447,0.99c0.911,0.317,1.815,0.645,2.703,0.992c0.923,0.363,1.83,0.746,2.693,1.164
	c0.432,0.212,0.851,0.433,1.252,0.662c0.195,0.124,0.396,0.236,0.581,0.362l0.283,0.187l0.306,0.214
	c0.8,0.559,1.577,1.143,2.229,1.747c0.135,0.12,0.256,0.246,0.373,0.367c-0.357,0.028-0.743,0.038-1.14,0.032
	c-0.94-0.015-1.926-0.095-2.911-0.2c-0.977-0.105-1.993-0.244-2.949-0.394c-0.507-0.082-1.012-0.164-1.471-0.26
	c-0.466-0.081-0.954-0.2-1.431-0.303c-1.915-0.436-3.813-0.981-5.685-1.627c-1.861-0.649-3.71-1.355-5.522-2.147
	c-3.612-1.58-7.146-3.352-10.551-5.311c-1.703-0.975-3.379-1.983-5.024-3.032l-1.229-0.793l-1.202-0.798
	c-0.845-0.542-1.581-1.082-2.37-1.619c-1.555-1.112-3.086-2.282-4.669-3.43c-1.567-1.15-3.198-2.263-4.916-3.236
	c4.708,3.928,7.434,6.982,12.467,10.367C153.343,139.228,165.194,145.504,175.836,147.036z"/>
<path fill="#D4DFE5" d="M98.464,127.851c-0.144,3.489,1.949,6.77,3.931,9.669c2.933,4.299,1.373,9.885,1.493,14.507
	c0.184,7.195-2.461,35.776,3.664,42.551l0,0l0.025,0.008c7.79-3.268,14.125-30.39,16.583-37.068
	c1.583-4.295,1.884-11.549,6.028-14.414c3.074-2.131,7.312-4.383,8.054-8.259l-18.331-18.708
	C119.911,116.136,98.475,127.623,98.464,127.851z"/>
<path fill="#DFEEF6" d="M135.344,134.878c-0.509,0.22-1.014,0.449-1.52,0.683c0.646-0.413,1.28-0.851,1.882-1.352
	c0.679-0.566-0.583-1.221-1.079-1.104c-0.868,0.2-1.723,0.429-2.573,0.671c0.403-0.528,0.753-1.101,1.025-1.731
	c0.29-0.673-0.685-1.068-1.195-0.985c-5.358,0.915-9.044,4.562-13.785,6.928c-2.326,1.158-4.745,2.18-7.236,2.967
	c-0.335,0.09-0.664,0.188-0.992,0.286c-0.637,0.161-1.28,0.29-1.937,0.368c-0.563,0.171-0.994-0.029-1.294-0.603
	c0.452-0.463,1.834-0.697,2.397-0.839c2.252-0.564,4.368-1.325,6.481-2.272c1.875-0.837,3.628-1.864,5.255-3.091
	c3.455-1.154,6.692-2.869,9.223-5.529c0.539-0.565-0.869-1.034-1.199-0.985c-2.915,0.411-5.117,1.904-7.333,3.779
	c-0.703,0.598-1.416,1.151-2.14,1.675c-1.394,0.449-2.813,0.831-4.225,1.164c-0.943,0.224-1.942,0.371-2.96,0.499
	c1.383-0.745,2.752-1.527,4.153-2.275c3.791-2.019,8.111-3.285,11.223-6.338c0.729-0.713-0.756-1.208-1.282-1.06
	c-3.997,1.123-7.688,2.91-11.445,4.672c0.016-0.008,0.032-0.016,0.05-0.023c3.309-1.649,6.56-3.386,9.749-5.216
	c0.797-0.454-0.563-1.095-1.156-1.078c0.299-0.149,0.599-0.297,0.896-0.451c0.998-0.513-0.444-1.416-1.123-1.149
	c-3.574,1.39-7.055,2.988-10.446,4.816c-2.698,1.449-6.075,4.237-9.345,5c1.867-1.786,4.735-2.736,6.896-4.006
	c3.264-1.922,6.505-3.86,9.686-5.885c0.577-0.367-0.052-0.847-0.653-1.026c0.719-0.435,1.438-0.872,2.153-1.314
	c0.596-0.368-0.14-0.939-0.769-1.082c0.233-0.397,0.305-0.774,0.089-1.09c-0.25-0.37-0.772-0.601-1.199-0.511
	c-0.583,0.125-1.053,0.487-1.54,0.812c-2.041,1.359-3.996,2.654-6.215,3.741c-2.8,1.373-5.711,2.52-8.545,3.85
	c-0.816,0.239-1.636,0.482-2.458,0.744c-0.423,0.136-0.436,0.384-0.255,0.619c-0.19,0.103-0.383,0.2-0.572,0.305
	c-0.204,0.116-0.229,0.414-0.107,0.609c0.469,0.762,1.276,0.997,2.207,0.945c-0.794,0.38-1.589,0.752-2.395,1.117
	c-0.88,0.396,0.108,1.216,0.712,1.22c0.607,0.003,1.18-0.103,1.731-0.271c-0.566,0.488-1.08,1.031-1.494,1.687
	c-0.362,0.572,0.59,0.979,0.997,1.005c0.396,0.026,0.782,0.021,1.16-0.013c-0.234,0.173-0.476,0.331-0.709,0.508
	c-0.76,0.576,0.763,1.355,1.309,1.066c0.057-0.029,0.111-0.061,0.167-0.089l0,0c0.001,0,0.001,0,0.003,0
	c0.191-0.102,0.379-0.208,0.57-0.31c-0.07,0.065-0.144,0.122-0.213,0.188c-0.69,0.66,0.599,1.14,1.104,1.115
	c3.116-0.149,5.793-2.006,8.394-3.491c2.745-1.568,5.714-2.979,8.738-4.144c-2.271,1.257-4.75,2.214-7.042,3.374
	c-2.717,1.379-5.276,2.958-8.045,4.177c-1.227,0.277-2.399,0.674-3.449,1.297c-0.874,0.519,0.821,1.205,1.308,1.063
	c1.053-0.302,2.063-0.674,3.05-1.09c1.559-0.301,3.215-0.383,4.687-0.639c0.834-0.144,1.658-0.323,2.481-0.504
	c-1.192,0.617-2.428,1.175-3.737,1.683c-1.886,0.729-5.043,0.799-6.529,2.314c-0.719,0.735,0.352,1.964,1.07,2.249
	c0.088,0.037,0.182,0.06,0.273,0.09c-0.269,0.133-0.547,0.253-0.806,0.4c-0.491,0.277,0.044,0.894,0.388,1.011
	c1.279,0.433,2.519,0.468,3.729,0.272c-0.94,0.375-1.877,0.751-2.82,1.123c-0.786,0.309-0.144,0.943,0.52,1.135
	c-1.705,1.037-2.864,2.13-1.804,2.829c1.028,0.676,2.492,0.009,3.456-0.349c1.001-0.371,1.981-0.788,2.963-1.208
	c-0.126,0.083-0.251,0.159-0.376,0.244c-0.227,0.151-0.265,0.314-0.195,0.465c-0.579,0.328-1.16,0.654-1.734,0.992
	c-0.337,0.2-0.271,0.445-0.04,0.652c-1.741,0.541-3.436,1.19-4.707,2.487c-0.572,0.584,0.361,1.072,0.874,1.118
	c2.204,0.211,4.416-0.169,6.605-0.842c-0.323,0.492,0.558,0.945,0.98,0.977c1.138,0.083,2.244-0.051,3.323-0.305
	c-0.178,0.089-0.361,0.176-0.537,0.268c-0.815,0.429-1.668,0.781-2.541,1.094c-2.595,0.696-5.182,1.436-7.643,2.523
	c-1.026,0.454,0.439,1.449,1.14,1.145c1.904-0.835,3.9-1.415,5.875-2.039c0.209-0.059,0.414-0.12,0.621-0.178
	c-2.478,1.3-4.93,2.65-7.202,4.325c-0.825,0.609,0.799,1.22,1.304,1.051c0.39-0.132,0.772-0.279,1.154-0.427
	c-0.684,0.609-1.312,1.282-1.868,2.038c-0.449,0.616,0.817,1.079,1.222,0.979c1.772-0.438,3.453-1.06,5.095-1.764
	c-1.278,1.101-2.42,2.336-3.275,3.816c-0.256,0.442,0.15,0.745,0.587,0.887c-0.4,0.266-0.797,0.538-1.194,0.816
	c-0.814,0.57,0.862,1.351,1.466,0.955c0.771-0.502,1.533-1.013,2.282-1.535c1.305-0.812,2.67-1.472,4.187-1.719
	c-0.704,1.098-2.151,1.741-3.242,2.226c-1.019,0.451,0.435,1.445,1.133,1.135c1.726-0.766,3.949-1.812,4.314-3.906
	c0.09-0.532-0.653-0.826-1.042-0.834c-0.503-0.013-0.988,0.022-1.463,0.082c0.896-0.782,1.757-1.607,2.571-2.502
	c0.54-0.6-0.997-1.15-1.411-0.924c-1.769,0.972-3.223,2.729-4.932,3.903c2.649-2.954,6.508-4.857,9.605-7.132
	c0.769-0.569-0.758-1.305-1.289-1.049c-3.712,1.785-7.27,3.925-11.149,5.358c2.91-2.601,6.871-4.037,10.044-6.155
	c0.665-0.443-0.252-0.978-0.9-1.067c0.287-0.156,0.573-0.312,0.857-0.472c0,0,0,0,0.001,0v-0.002
	c0.055-0.029,0.109-0.061,0.165-0.091c0.458-0.259,0.198-0.584-0.219-0.807c1.935-0.91,3.865-1.967,5.236-3.37
	c0.713-0.731-0.749-1.21-1.287-1.052c-2.83,0.837-5.679,2.63-8.667,3.253c2.961-2.065,6.484-3.547,9.721-4.88
	c1.041-0.432-0.446-1.363-1.124-1.143c-2.881,0.959-5.656,2.251-8.471,3.413c-2.422,0.999-5.137,2.232-7.86,2.601
	c2.582-1.558,6.164-2.171,8.763-3.284c4.366-1.873,8.705-3.746,12.798-6.114c0.673-0.39-0.271-0.978-0.836-1.087
	c1.779-0.97,3.554-1.943,5.338-2.9c1.021-0.551-0.467-1.32-1.118-1.14c-0.303,0.084-0.594,0.183-0.895,0.27
	c1.49-0.762,2.989-1.499,4.521-2.17C137.459,135.581,136.027,134.588,135.344,134.878z M113.291,131.143
	c-1.683,0.901-3.356,2.021-5.121,2.82C109.793,132.895,111.554,131.999,113.291,131.143z M110.676,142.641
	c-0.608,0.226-1.226,0.4-1.842,0.493c0.314-0.114,0.635-0.219,0.96-0.318C110.088,142.769,110.381,142.71,110.676,142.641z
	 M121.319,137.808c3.011-1.875,5.924-3.943,9.241-4.999c-0.575,0.805-1.29,1.501-2.095,2.111
	C126.051,135.772,123.682,136.753,121.319,137.808z M108.576,147.579c0.712-0.415,1.465-0.769,2.194-1.123
	c1.893-0.924,3.851-1.71,5.786-2.526c3.58-1.51,6.975-3.389,10.419-5.148c0.65-0.246,1.291-0.5,1.931-0.761
	c-2.989,1.588-5.952,3.259-9.02,4.718C116.204,144.489,112.389,146.048,108.576,147.579z M123.305,143.068
	c-0.269,0.143-0.537,0.284-0.806,0.425c-0.015,0.006-0.033,0.012-0.048,0.017c0.078-0.046,0.155-0.09,0.233-0.138
	C122.892,143.272,123.098,143.167,123.305,143.068z"/>
<path fill="#293644" d="M161.229,156.725c-0.49-0.488-1.213-1.2-2.146-2.091c-1.838-1.817-4.463-4.416-7.568-7.589
	c-1.549-1.599-3.251-3.309-5.01-5.169c-1.794-1.824-3.646-3.798-5.588-5.82c-1.935-2.037-3.935-4.147-5.976-6.296
	c-2.043-2.148-4.116-4.347-6.177-6.565c-2.292-2.444-4.571-4.901-6.823-7.318c1.525-0.842,3.039-1.676,4.519-2.493
	c1.263-0.684,2.501-1.359,3.714-2.021c1.222-0.655,2.419-1.296,3.582-1.919c2.335-1.283,4.528-2.551,6.491-3.826
	c1.973-1.269,3.725-2.532,5.181-3.776c1.464-1.239,2.628-2.47,3.461-3.579c0.834-1.116,1.326-2.109,1.593-2.814
	c0.14-0.35,0.216-0.627,0.263-0.816c0.051-0.188,0.078-0.284,0.078-0.284s-0.033,0.094-0.095,0.276
	c-0.065,0.185-0.155,0.459-0.32,0.792c-0.306,0.674-0.861,1.614-1.751,2.646c-0.896,1.026-2.11,2.148-3.628,3.262
	c-1.514,1.119-3.314,2.244-5.343,3.352c-2.033,1.099-4.288,2.178-6.704,3.265c-1.196,0.564-2.451,1.104-3.703,1.742
	c-1.237,0.635-2.505,1.286-3.787,1.943c-1.654,0.86-3.345,1.75-5.045,2.65c-1.321-1.414-2.631-2.814-3.921-4.175
	c-0.997-1.042-1.979-2.069-2.941-3.074c-0.978-1.013-1.983-1.935-2.928-2.858c-1.927-1.818-3.707-3.576-5.266-5.28
	c-1.556-1.709-2.892-3.362-3.953-4.915c-1.071-1.55-1.85-3.007-2.359-4.27c-0.506-1.267-0.721-2.337-0.793-3.074
	c-0.042-0.366-0.041-0.657-0.04-0.851c0.001-0.193,0.001-0.294,0.001-0.294s-0.009,0.101-0.023,0.294
	c-0.014,0.194-0.035,0.482-0.019,0.858c0.021,0.752,0.163,1.852,0.588,3.18c0.422,1.322,1.117,2.864,2.096,4.514
	c0.971,1.655,2.211,3.421,3.66,5.264c1.439,1.848,3.094,3.765,4.881,5.741c0.896,0.972,1.817,1.97,2.755,2.986
	c0.93,1.022,1.882,2.067,2.85,3.126c1.135,1.263,2.298,2.553,3.471,3.854c-2.924,1.551-5.892,3.13-8.866,4.693
	c-2.672,1.421-5.349,2.823-7.985,4.182c-0.914,0.475-6.142,3.183-7.707,3.994c-2.496,1.275-4.893,2.534-7.186,3.671
	c-2.268,1.183-4.438,2.239-6.423,3.242c-3.974,1.982-7.304,3.581-9.635,4.696c-1.174,0.537-2.09,0.975-2.714,1.274
	c-0.622,0.296-0.958,0.459-0.958,0.459s0.356-0.116,1.019-0.325c0.661-0.213,1.634-0.523,2.865-0.937
	c1.235-0.409,2.708-0.977,4.408-1.599c1.701-0.635,3.587-1.423,5.665-2.253c2.054-0.887,4.291-1.829,6.626-2.895
	c2.344-1.067,4.799-2.228,7.335-3.44c1.075-0.535,2.175-1.082,3.278-1.63c0.016,0.615,0.09,1.23,0.229,1.83
	c0.331,1.49,0.969,2.889,1.706,4.202c0.723,1.315,1.623,2.552,2.39,3.785c0.723,1.247,1.109,2.681,1.272,4.115
	c0.322,2.898-0.157,5.803-0.211,8.764c0,0.082-0.001,0.16,0,0.238c-0.208,0.144-0.393,0.29-0.541,0.44
	c-0.272,0.266-0.43,0.536-0.479,0.735c-0.053,0.201-0.043,0.309-0.043,0.309s0.017-0.113,0.109-0.276
	c0.091-0.166,0.282-0.372,0.576-0.556c0.109-0.067,0.244-0.129,0.378-0.19c0.005,1.244-0.011,2.463-0.061,3.706l-0.155,4.402
	c-0.216,5.871-0.379,11.762-0.137,17.667c0.129,2.952,0.376,5.907,0.877,8.839c0.252,1.466,0.581,2.925,1.051,4.355
	c0.479,1.415,1.093,2.835,2.124,4.004l0.062,0.073l0.095,0.025l0.028,0.007l0.11,0.029l0.095-0.042
	c1.429-0.63,2.499-1.75,3.419-2.911c0.921-1.175,1.694-2.444,2.403-3.745c1.41-2.605,2.558-5.336,3.613-8.096
	c1.643-4.313,3.03-8.712,4.356-13.119l0.075-0.024c0,0-0.008-0.06-0.024-0.147c0.354-1.177,0.704-2.354,1.053-3.53
	c0.422-1.407,0.841-2.816,1.286-4.21c0.218-0.701,0.467-1.376,0.707-2.08c0.231-0.71,0.422-1.424,0.602-2.14
	c0.059-0.239,0.113-0.479,0.169-0.72c0.158,0.116,0.306,0.229,0.438,0.325c0.592,0.435,0.935,0.683,0.935,0.683
	s-0.318-0.279-0.871-0.766c-0.14-0.123-0.294-0.261-0.461-0.412c0.27-1.137,0.53-2.272,0.831-3.392
	c0.381-1.404,0.828-2.794,1.463-4.071c0.633-1.27,1.485-2.43,2.616-3.218c1.163-0.805,2.37-1.557,3.527-2.4
	c1.152-0.838,2.271-1.764,3.178-2.919c0.421-0.536,0.779-1.141,1.05-1.788c0.425,0.433,0.858,0.874,1.278,1.303
	c2.001,1.979,3.938,3.877,5.805,5.649c1.857,1.773,3.663,3.396,5.313,4.905c1.689,1.468,3.217,2.83,4.614,3.983
	c1.404,1.146,2.608,2.161,3.643,2.954c1.028,0.793,1.844,1.406,2.403,1.822c0.554,0.415,0.853,0.639,0.853,0.639
	S161.723,157.209,161.229,156.725z M124.71,154.747c-0.176,0.71-0.365,1.418-0.589,2.103c-0.232,0.685-0.495,1.378-0.713,2.083
	c-0.456,1.4-0.877,2.81-1.304,4.215c-0.271,0.904-0.547,1.806-0.819,2.71c-0.083-0.219-0.184-0.448-0.316-0.703
	c-0.194-0.357-0.445-0.753-0.773-1.139c-0.308-0.406-0.706-0.783-1.141-1.177c-0.449-0.363-0.941-0.739-1.483-1.054
	c-0.544-0.317-1.13-0.604-1.745-0.824c-0.613-0.231-1.253-0.403-1.897-0.521c-1.292-0.246-2.604-0.279-3.813-0.158
	c-0.606,0.056-1.186,0.156-1.724,0.292c-0.541,0.14-1.046,0.279-1.492,0.478c-0.451,0.179-0.851,0.376-1.188,0.581
	c-0.337,0.201-0.619,0.396-0.833,0.583c-0.223,0.171-0.375,0.333-0.479,0.442c-0.101,0.109-0.158,0.169-0.158,0.169l0.037,0.048
	c0,0,0.073-0.026,0.213-0.076c0.136-0.055,0.335-0.128,0.591-0.207c0.127-0.043,0.268-0.084,0.425-0.121
	c0.154-0.04,0.315-0.094,0.5-0.128c0.357-0.075,0.755-0.158,1.203-0.214c0.438-0.06,0.92-0.107,1.428-0.137
	c0.511-0.019,1.043-0.034,1.596-0.019c0.55,0.006,1.124,0.049,1.699,0.101c0.573,0.062,1.157,0.135,1.734,0.236
	c0.575,0.107,1.147,0.212,1.706,0.358c0.558,0.134,1.103,0.292,1.62,0.479c1.037,0.355,1.956,0.864,2.634,1.448
	c0.68,0.581,1.116,1.228,1.37,1.686c0.042,0.065,0.069,0.124,0.102,0.188c-1.377,4.525-2.81,9.036-4.503,13.44
	c-1.058,2.739-2.215,5.447-3.607,8.009c-0.702,1.279-1.465,2.523-2.359,3.651c-0.842,1.058-1.818,2.036-2.983,2.602
	c-0.834-1.02-1.396-2.287-1.828-3.579c-0.446-1.382-0.765-2.811-1.007-4.251c-0.492-2.888-0.705-5.82-0.851-8.748
	c-0.27-5.868-0.138-11.743,0.046-17.613l0.133-4.406c0.039-1.311,0.028-2.652,0.014-3.959c0.519-0.183,1.136-0.341,1.85-0.46
	c1.196-0.208,2.616-0.358,4.14-0.413c0.763-0.029,1.548-0.047,2.346-0.047c0.785-0.01,1.586-0.02,2.383-0.028
	c0.393-0.003,0.785,0,1.148,0.025c0.408,0.031,0.83,0.045,1.197,0.082c0.755,0.05,1.529,0.187,2.264,0.342
	c0.724,0.193,1.43,0.418,2.068,0.712c0.637,0.295,1.231,0.604,1.759,0.937c0.622,0.381,1.154,0.751,1.616,1.086
	C124.854,154.149,124.784,154.45,124.71,154.747z M136.642,137.677c-0.86,1.101-1.949,2.004-3.085,2.829
	c-1.142,0.83-2.347,1.576-3.52,2.393c-1.217,0.846-2.119,2.076-2.775,3.394c-0.659,1.327-1.114,2.741-1.5,4.166
	c-0.283,1.048-0.53,2.104-0.78,3.158c-0.411-0.372-0.882-0.784-1.433-1.222c-0.998-0.808-2.27-1.637-3.755-2.32
	c-0.75-0.337-1.527-0.659-2.379-0.875c-0.436-0.136-0.828-0.208-1.238-0.288c-0.449-0.089-0.89-0.125-1.32-0.152
	c-0.865-0.05-1.711-0.021-2.537,0.065c-0.826,0.093-1.631,0.22-2.403,0.37c-1.546,0.308-2.977,0.671-4.161,1.115
	c-0.6,0.226-1.142,0.468-1.601,0.722c0.053-2.863,0.513-5.751,0.181-8.706c-0.176-1.487-0.576-2.99-1.355-4.327
	c-0.811-1.291-1.674-2.468-2.394-3.77c-0.726-1.283-1.343-2.636-1.66-4.055c-0.152-0.654-0.223-1.317-0.22-1.978
	c1.33-0.664,2.673-1.341,4.026-2.034c2.644-1.364,5.323-2.768,7.997-4.193c2.688-1.416,5.356-2.881,7.994-4.315
	c0.426-0.236,0.846-0.467,1.271-0.702c0.321,0.355,0.636,0.705,0.958,1.062c1.06,1.162,2.126,2.335,3.198,3.507l0.113,0.151
	c0.323,0.421,0.663,0.829,0.991,1.242c0.335,0.411,0.658,0.83,1,1.234l1.038,1.195c0.343,0.407,0.697,0.794,1.064,1.176l1.085,1.148
	l1.133,1.106c0.369,0.373,0.775,0.708,1.165,1.064c0.266,0.247,0.551,0.474,0.832,0.704c0.233,0.246,0.47,0.498,0.702,0.743
	c1.489,1.554,2.966,3.061,4.424,4.545C137.442,136.497,137.08,137.119,136.642,137.677z"/>
<path fill="none" stroke="#E2E2E2" stroke-width="0.7186" stroke-miterlimit="10" d="M113.267,161.976"/>
<path fill="#FFFFFF" d="M120.747,166.184c-0.126-0.422-0.988-0.503-1.292-0.307c-0.752,0.472-1.437,1.01-2.07,1.599
	c-0.043,0.007-0.087,0.014-0.108,0.025c-3.524,1.617-6.496,4.423-9.662,6.758c-0.577,0.426-1.174,0.797-1.791,1.148
	c1.729-0.986,3.314-2.639,4.896-3.917c2.288-1.85,4.569-3.691,6.802-5.604c0.408-0.354-1.022-0.605-1.264-0.499
	c-2.699,1.169-5.308,2.654-8.008,3.864c2.289-2.02,2.553-2.787,3.04-3.854c0.934-0.168,1.797-0.371,2.405-0.7
	c-0.232-0.091-1.031-0.305-1.774-0.51c0.256-0.507-1.021-0.608-1.277-0.47c-1.742,0.939-3.653,1.277-5.396,2.22
	c-0.54,0.291,0.798,0.78,1.183,0.571c0.582-0.313,1.397-0.511,2.28-0.675c-1.634,1.441-3.538,2.752-3.988,4.91
	c-0.101,0.483,0.949,0.537,1.189,0.463c2.471-0.79,4.815-1.969,7.153-3.151c-3.066,2.522-5.946,4.768-8.979,7.371
	c-0.143,0.123,0,0.324,0.075,0.389c1.327,1.055,2.735,0.275,3.999-0.541c2.277-1.468,4.324-3.312,6.506-4.907
	c-2.555,2.686-5.286,5.17-7.98,7.717c-0.412,0.39,1.03,0.607,1.269,0.495c1.449-0.665,2.809-1.468,4.118-2.36
	c-1.785,2.133-3.678,4.15-5.749,6.013c-0.403,0.361,0.955,0.604,1.145,0.543c1.488-0.478,2.926-1.072,4.338-1.737
	c-1.939,1.917-3.854,3.867-5.637,5.977c-0.333,0.393,1.032,0.768,1.359,0.418c1.465-1.566,2.934-3.115,4.433-4.624
	c-0.84,1.577-1.694,3.156-2.525,4.758c-0.912,0.924-1.754,1.908-2.427,3.088c-0.18,0.316,0.217,0.499,0.636,0.543
	c-0.069,0.147-0.138,0.292-0.206,0.439c-0.213,0.467,1.157,0.557,1.401,0.324c1.959-1.859,2.539-3.104,3.532-5.546
	c0.001-0.003-0.001-0.006,0.001-0.007c2.183-2.977,3.781-6.232,5.353-9.702c0.171-0.382-0.552-0.527-1.001-0.418
	c0.643-1.492,1.219-3.025,1.7-4.611c0.414,0.225,0.992,0.188,0.998-0.141C119.452,169.731,121.286,168.003,120.747,166.184z
	 M119.054,168.437c-0.158-0.119-0.426-0.179-0.672-0.19c0.314-0.31,0.643-0.605,0.989-0.889
	C119.308,167.718,119.191,168.077,119.054,168.437z M112.969,173.843c-0.037,0.077-0.076,0.15-0.113,0.228
	c-0.028,0.06-0.032,0.117-0.021,0.171c-0.42,0.322-0.844,0.639-1.273,0.945C112.032,174.74,112.503,174.294,112.969,173.843z
	 M116.392,172.864c0.208-0.288-0.202-0.471-0.632-0.521c0.462-0.602,0.949-1.181,1.463-1.732c-0.795,2.846-1.908,5.513-3.169,8.107
	c-1.526,0.827-3.066,1.607-4.648,2.285C111.952,178.509,114.261,175.793,116.392,172.864z"/>
<path opacity="0.5" fill="#E1EEF4" d="M138.94,125.308c0.343-0.14,0.699-0.239,1.054-0.316c0.713-0.163,1.429-0.239,2.141-0.301
	c0.714-0.06,1.422-0.076,2.129-0.096l2.107,0.012c0.7,0.014,1.396,0.046,2.073,0.045l2.082-0.047c1.42-0.027,2.838-0.021,4.246-0.01
	c2.828,0.022,5.636,0.06,8.428-0.085c0.7-0.042,1.393-0.092,2.089-0.147l1.021-0.103l1.062-0.136l4.243-0.605
	c2.844-0.408,5.674-0.853,8.498-1.349c2.83-0.5,5.641-1.094,8.408-1.841c2.771-0.756,5.508-1.639,8.08-2.828
	c2.032-0.939,3.966-2.086,5.59-3.51c-0.239-0.029-0.479-0.062-0.721-0.083c-0.416-0.028-0.831-0.068-1.254-0.084
	c-0.42-0.016-0.843-0.024-1.268-0.02c-0.425,0.01-0.853,0.012-1.278,0.032c-0.429,0.017-0.856,0.043-1.287,0.076
	c-0.859,0.066-1.723,0.157-2.586,0.271c-0.863,0.117-1.724,0.252-2.587,0.406c-0.856,0.163-1.718,0.324-2.569,0.514
	c-0.852,0.194-1.706,0.381-2.557,0.582l-2.545,0.597c1.485-0.403,2.97-0.799,4.448-1.238c0.399-0.115,0.8-0.236,1.2-0.352
	l1.915-0.59c0.836-0.259,1.684-0.517,2.538-0.748c0.322-0.088,0.646-0.17,0.971-0.252c0.768-0.219,1.533-0.434,2.3-0.657
	c1.499-0.439,3.005-0.82,4.517-1.185l2.283-0.554c0.742-0.181,1.489-0.354,2.223-0.568c1.479-0.407,2.939-0.883,4.384-1.418
	c1.442-0.531,2.872-1.114,4.287-1.74c1.42-0.615,2.83-1.253,4.234-1.931l4.224-2.038c1.418-0.686,2.809-1.395,4.271-2.065
	c2.899-1.346,5.837-2.538,8.696-3.816c1.43-0.646,2.835-1.322,4.199-2.059c0.681-0.368,1.354-0.759,2.007-1.156
	c0.321-0.205,0.645-0.394,0.966-0.612l0.973-0.654c1.317-0.917,2.641-1.795,3.902-2.701c0.853-0.615,1.644-1.273,2.403-1.958
	c-2.218-0.44-4.471-0.759-6.736-0.977c-2.764-0.252-5.547-0.395-8.331-0.416c-2.778-0.018-5.565,0.057-8.327,0.19
	c-2.778,0.145-5.539,0.34-8.289,0.593c-1.374,0.11-2.742,0.284-4.109,0.422c-1.365,0.153-2.726,0.346-4.085,0.516l-4.052,0.622
	c-1.34,0.249-2.692,0.466-4.02,0.738l-1.979,0.409c-0.66,0.131-1.323,0.276-1.993,0.44l-2.001,0.473l-0.975,0.236l-0.99,0.251
	c-2.637,0.67-5.266,1.353-7.882,2.057c-5.216,1.408-10.377,2.929-15.441,4.662c-2.521,0.861-5.03,1.752-7.515,2.692
	c-1.236,0.472-2.475,0.95-3.693,1.456c-1.235,0.475-2.442,0.999-3.655,1.508c-1.204,0.536-2.387,1.023-3.6,1.595
	c-1.208,0.567-2.394,1.131-3.619,1.686l-3.616,1.644c-1.199,0.537-2.392,1.085-3.57,1.654c-2.354,1.129-4.678,2.311-6.878,3.672
	c-1.094,0.689-2.171,1.404-3.152,2.231c-0.986,0.826-1.891,1.728-2.562,2.852l-0.053-0.024c-0.004,0.01-0.255,0.791-0.228,1.417
	c0.025,0.63,1.254,1.124,2.327,1.731c1.072,0.605,6.477,4.324,6.477,4.324l-0.01-0.354l0,0h0.016
	c0.017-0.113,0.071-0.203,0.14-0.286l-0.078-0.07C138.242,125.636,138.592,125.443,138.94,125.308z"/>
<path fill="#293644" d="M252.45,86.735c-2.778-0.665-5.6-1.113-8.433-1.417c-2.824-0.299-5.657-0.447-8.485-0.539
	c-2.823-0.084-5.63-0.076-8.449-0.008c-2.798,0.083-5.593,0.204-8.384,0.387c-1.392,0.073-2.782,0.211-4.174,0.316
	c-1.388,0.117-2.77,0.277-4.155,0.414l-4.141,0.526c-1.376,0.217-2.746,0.401-4.122,0.644l-2.062,0.37
	c-0.692,0.119-1.371,0.25-2.038,0.394l-2.009,0.42l-0.505,0.106l-0.523,0.116l-1.003,0.231c-2.673,0.606-5.332,1.271-7.975,1.967
	c-2.646,0.69-5.266,1.431-7.882,2.192c-2.609,0.783-5.207,1.561-7.782,2.421c-2.576,0.834-5.126,1.76-7.651,2.727
	c-2.527,0.959-5.018,2.014-7.473,3.14c-2.478,1.155-4.845,2.373-7.172,3.62l-3.529,1.849c-1.167,0.637-2.338,1.287-3.491,1.958
	c-1.16,0.667-2.293,1.381-3.41,2.118c-1.123,0.735-2.209,1.524-3.253,2.364c-1.049,0.838-2.047,1.745-2.944,2.745
	c-0.446,0.502-0.854,1.035-1.226,1.589c-0.358,0.559-0.667,1.166-0.878,1.766l0.056,0.024l0.053,0.024
	c0.671-1.124,1.575-2.025,2.562-2.852c0.981-0.827,2.059-1.542,3.152-2.231c2.2-1.361,4.524-2.543,6.878-3.672
	c1.179-0.569,2.371-1.117,3.57-1.654l3.616-1.644c1.226-0.555,2.411-1.119,3.619-1.686c1.213-0.571,2.396-1.059,3.6-1.595
	c1.213-0.509,2.42-1.033,3.655-1.508c1.219-0.506,2.457-0.983,3.693-1.456c2.484-0.939,4.993-1.831,7.515-2.692
	c5.064-1.733,10.226-3.253,15.441-4.662c2.616-0.704,5.245-1.387,7.882-2.057l0.99-0.251l0.975-0.236l2.001-0.473
	c0.67-0.165,1.333-0.309,1.993-0.44l1.979-0.409c1.327-0.272,2.68-0.489,4.02-0.738l4.052-0.622c1.359-0.17,2.72-0.363,4.085-0.516
	c1.367-0.139,2.735-0.312,4.109-0.422c2.75-0.253,5.511-0.448,8.289-0.593c2.762-0.133,5.549-0.208,8.327-0.19
	c2.784,0.021,5.567,0.164,8.331,0.416c2.266,0.217,4.519,0.536,6.736,0.977c-0.76,0.685-1.551,1.343-2.403,1.958
	c-1.262,0.906-2.585,1.784-3.902,2.701l-0.973,0.654c-0.321,0.218-0.645,0.408-0.966,0.612c-0.652,0.396-1.326,0.788-2.007,1.156
	c-1.364,0.737-2.77,1.414-4.199,2.059c-2.859,1.279-5.797,2.471-8.696,3.816c-1.462,0.67-2.853,1.379-4.271,2.065l-4.224,2.038
	c-1.404,0.678-2.814,1.316-4.234,1.931c-1.415,0.625-2.845,1.208-4.287,1.74c-1.444,0.535-2.905,1.011-4.384,1.418
	c-0.733,0.213-1.48,0.387-2.223,0.568l-2.283,0.554c-1.512,0.365-3.018,0.746-4.517,1.185c-0.767,0.223-1.532,0.438-2.3,0.657
	c-0.324,0.083-0.648,0.165-0.971,0.252c-0.854,0.231-1.702,0.488-2.538,0.748l-1.915,0.59c-0.4,0.116-0.801,0.237-1.2,0.352
	c-1.479,0.439-2.963,0.835-4.448,1.238l4.468-1.159c0.047-0.012,0.095-0.022,0.141-0.034c-1.535,0.41-3.065,0.83-4.608,1.193
	l2.545-0.597c0.851-0.201,1.705-0.388,2.557-0.582c0.852-0.19,1.713-0.351,2.569-0.514c0.863-0.154,1.724-0.289,2.587-0.406
	c0.863-0.115,1.727-0.206,2.586-0.271c0.431-0.033,0.858-0.059,1.287-0.076c0.426-0.02,0.854-0.021,1.278-0.032
	c0.425-0.004,0.848,0.004,1.268,0.02c0.423,0.017,0.838,0.056,1.254,0.084c0.241,0.02,0.481,0.054,0.721,0.083
	c-1.624,1.423-3.558,2.57-5.59,3.51c-2.572,1.189-5.31,2.072-8.08,2.828c-2.768,0.748-5.578,1.341-8.408,1.841
	c-2.824,0.497-5.654,0.941-8.498,1.349l-4.243,0.605l-1.062,0.136l-1.021,0.103c-0.696,0.055-1.389,0.106-2.089,0.147
	c-2.792,0.146-5.6,0.107-8.428,0.085c-1.408-0.011-2.826-0.017-4.246,0.01l-2.082,0.047c-0.677,0.001-1.373-0.032-2.073-0.045
	l-2.107-0.012c-0.707,0.02-1.415,0.036-2.129,0.096c-0.712,0.062-1.428,0.139-2.141,0.301c-0.354,0.077-0.711,0.176-1.054,0.316
	c-0.349,0.135-0.698,0.329-0.939,0.628l0.078,0.07l0.025,0.025c0.568-0.35,1.277-0.331,1.943-0.359
	c0.679,0.005,1.359,0.037,2.042,0.096c0.685,0.053,1.369,0.112,2.053,0.186l2.071,0.196c0.698,0.06,1.396,0.113,2.12,0.147
	c0.762,0.034,1.428,0,2.131,0.011c1.391,0.006,2.79,0.043,4.194,0.088c2.813,0.084,5.66,0.192,8.555,0.103
	c0.723-0.02,1.449-0.062,2.174-0.115l1.112-0.102l1.069-0.124l4.282-0.562c2.858-0.384,5.731-0.779,8.605-1.315
	c2.874-0.521,5.754-1.141,8.612-1.923c2.862-0.786,5.696-1.782,8.423-3.084c2.712-1.314,5.352-2.996,7.401-5.313l1.065-1.202
	l-1.56-0.275c-0.368-0.065-0.734-0.114-1.103-0.159l0.695-0.123c0.779-0.147,1.561-0.286,2.335-0.467
	c1.554-0.342,3.096-0.754,4.613-1.229c1.522-0.468,3.03-0.993,4.519-1.558c1.481-0.574,2.95-1.189,4.404-1.825
	c1.456-0.628,2.885-1.312,4.312-1.984l4.262-2.022c2.833-1.324,5.751-2.586,8.616-4.042c1.437-0.722,2.867-1.487,4.257-2.319
	c0.697-0.415,1.382-0.849,2.062-1.305c0.335-0.233,0.686-0.465,1.012-0.701l0.963-0.715c1.229-0.952,2.533-1.846,3.813-2.817
	c1.287-0.966,2.562-2.002,3.689-3.177l0.945-0.983L252.45,86.735z"/>
<path opacity="0.5" fill="#E1EEF4" d="M110.666,116.162c-0.28-1.275-0.854-2.417-1.528-3.514c-0.673-1.094-1.469-2.113-2.289-3.112
	c-1.656-1.985-3.489-3.841-5.37-5.655c-0.934-0.912-1.894-1.809-2.862-2.695l-2.914-2.701c-0.987-0.916-1.93-1.823-2.899-2.743
	c-0.971-0.924-1.938-1.762-2.913-2.65c-0.991-0.865-1.972-1.743-2.992-2.584c-0.999-0.864-2.022-1.708-3.045-2.547
	c-2.062-1.673-4.16-3.312-6.284-4.925c-4.257-3.243-8.676-6.315-13.18-9.297c-2.261-1.494-4.54-2.97-6.829-4.439l-0.862-0.55
	l-0.85-0.531l-1.75-1.081c-0.583-0.368-1.167-0.714-1.752-1.046l-1.75-1.013c-1.173-0.677-2.386-1.31-3.581-1.968l-3.648-1.869
	c-1.237-0.592-2.465-1.205-3.712-1.781c-1.254-0.563-2.497-1.159-3.769-1.698c-2.527-1.107-5.085-2.164-7.673-3.177
	c-2.583-0.998-5.204-1.948-7.845-2.808c-2.648-0.858-5.334-1.603-8.038-2.236c-2.227-0.511-4.473-0.919-6.723-1.202
	c0.505,0.892,1.069,1.764,1.687,2.62c0.913,1.258,1.889,2.509,2.848,3.794l0.717,0.927c0.238,0.309,0.484,0.591,0.725,0.887
	c0.492,0.582,1.011,1.167,1.54,1.729c1.063,1.131,2.181,2.215,3.336,3.279c2.309,2.116,4.719,4.173,7.046,6.367
	c1.177,1.097,2.271,2.208,3.401,3.307l3.365,3.267c1.118,1.086,2.255,2.137,3.41,3.168c1.145,1.04,2.315,2.045,3.516,3.003
	c1.203,0.964,2.437,1.876,3.713,2.73c0.629,0.434,1.285,0.833,1.931,1.242l1.989,1.243c1.32,0.823,2.628,1.662,3.914,2.55
	c0.749,0.518,1.502,1.028,2.251,1.542c0.186,0.121,0.381,0.231,0.564,0.354c0.742,0.488,1.461,0.999,2.174,1.51l1.652,1.181
	c0.335,0.23,0.669,0.467,1.006,0.696c1.265,0.882,2.547,1.727,3.83,2.578l-2.227-1.37c-0.745-0.459-1.497-0.904-2.242-1.358
	c-0.749-0.448-1.516-0.874-2.277-1.299c-0.767-0.419-1.545-0.818-2.327-1.202c-0.782-0.382-1.572-0.739-2.368-1.074
	c-0.396-0.168-0.795-0.327-1.197-0.479c-0.397-0.151-0.803-0.289-1.203-0.432c-0.4-0.138-0.805-0.264-1.209-0.381
	c-0.403-0.118-0.813-0.213-1.216-0.316c-0.236-0.058-0.474-0.101-0.709-0.149c1.092,1.862,2.566,3.561,4.196,5.094
	c2.067,1.939,4.385,3.642,6.773,5.232c2.389,1.583,4.871,3.033,7.399,4.402c2.522,1.361,5.07,2.678,7.637,3.961l3.837,1.914
	l0.963,0.462l0.939,0.421c0.642,0.274,1.286,0.542,1.935,0.8c2.604,1.02,5.282,1.872,7.97,2.743
	c1.342,0.432,2.688,0.874,4.027,1.347l1.962,0.703c0.639,0.213,1.31,0.403,1.979,0.61l2.003,0.655
	c0.665,0.242,1.333,0.48,1.993,0.761c0.654,0.284,1.31,0.584,1.935,0.962c0.312,0.186,0.619,0.391,0.9,0.634
	c0.285,0.237,0.558,0.532,0.694,0.891l-0.096,0.043c0.037,0.099,0.06,0.203,0.038,0.314l0.016,0.004v0l-0.121,0.333
	c0,0,6.301-1.824,7.512-2.059c1.21-0.237,2.529-0.319,2.753-0.907c0.225-0.587,0.232-1.411,0.232-1.418l0.018-0.002v0
	L110.666,116.162z"/>
<path fill="#293644" d="M110.511,114.198c-0.178-0.643-0.398-1.278-0.664-1.894c-0.535-1.231-1.195-2.407-1.927-3.534
	c-0.726-1.127-1.507-2.219-2.341-3.269c-0.827-1.054-1.676-2.088-2.565-3.087c-0.885-1.002-1.787-1.987-2.697-2.96l-2.766-2.868
	c-1.812-1.919-3.677-3.822-5.662-5.699c-1.974-1.844-4.006-3.63-6.1-5.337c-2.092-1.716-4.217-3.398-6.399-5.002
	c-2.172-1.629-4.395-3.188-6.62-4.754c-2.24-1.546-4.496-3.078-6.786-4.567c-2.29-1.494-4.605-2.964-6.949-4.384l-0.878-0.535
	l-0.46-0.277l-0.444-0.258l-1.775-1.033c-0.586-0.348-1.191-0.687-1.808-1.016l-1.84-1.004c-1.228-0.664-2.471-1.271-3.708-1.91
	l-3.763-1.806c-1.272-0.566-2.532-1.155-3.814-1.706c-1.288-0.536-2.562-1.107-3.86-1.617c-2.594-1.053-5.207-2.05-7.832-3.01
	c-2.655-0.956-5.317-1.851-8.024-2.66c-2.709-0.805-5.445-1.559-8.22-2.166c-2.782-0.606-5.604-1.072-8.449-1.317l-1.375-0.118
	l0.584,1.232c0.7,1.471,1.582,2.857,2.499,4.18c0.908,1.325,1.865,2.585,2.728,3.877l0.69,0.982
	c0.232,0.327,0.494,0.657,0.738,0.983c0.504,0.647,1.013,1.276,1.545,1.889c1.057,1.229,2.172,2.406,3.307,3.544
	c2.259,2.284,4.631,4.404,6.902,6.555l3.403,3.264c1.143,1.088,2.283,2.188,3.467,3.244c1.177,1.062,2.376,2.109,3.601,3.122
	c1.234,1.006,2.5,1.979,3.797,2.903c1.291,0.93,2.624,1.808,3.991,2.623c0.675,0.416,1.373,0.795,2.065,1.18l0.621,0.335
	c-0.363-0.072-0.726-0.142-1.096-0.196l-1.564-0.232l0.629,1.477c1.213,2.846,3.188,5.274,5.348,7.377
	c2.175,2.097,4.551,3.936,7.016,5.585c2.467,1.644,5.004,3.14,7.568,4.543c2.556,1.414,5.159,2.695,7.749,3.961l3.887,1.887
	l0.976,0.456l1.021,0.445c0.673,0.28,1.349,0.55,2.029,0.795c2.718,0.998,5.451,1.796,8.149,2.603
	c1.345,0.402,2.686,0.808,4.008,1.239c0.669,0.213,1.29,0.454,2.025,0.663c0.698,0.196,1.377,0.366,2.056,0.529l2.028,0.467
	c0.675,0.145,1.343,0.306,2.007,0.472c0.667,0.16,1.322,0.345,1.968,0.555c0.623,0.235,1.301,0.443,1.73,0.954l0.035-0.015
	l0.096-0.043c-0.137-0.359-0.41-0.654-0.694-0.891c-0.281-0.243-0.589-0.449-0.9-0.634c-0.625-0.377-1.281-0.678-1.935-0.962
	c-0.66-0.281-1.328-0.52-1.993-0.761l-2.003-0.655c-0.669-0.207-1.34-0.397-1.979-0.61l-1.962-0.703
	c-1.339-0.473-2.685-0.916-4.027-1.347c-2.688-0.871-5.366-1.723-7.97-2.743c-0.649-0.258-1.293-0.525-1.935-0.8l-0.939-0.421
	l-0.963-0.462l-3.837-1.914c-2.566-1.284-5.115-2.601-7.637-3.961c-2.528-1.369-5.01-2.819-7.399-4.402
	c-2.388-1.59-4.706-3.292-6.773-5.232c-1.629-1.533-3.104-3.232-4.196-5.094c0.236,0.048,0.473,0.091,0.709,0.149
	c0.403,0.103,0.812,0.198,1.216,0.316c0.404,0.117,0.809,0.243,1.209,0.381c0.4,0.144,0.806,0.281,1.203,0.432
	c0.402,0.152,0.801,0.311,1.197,0.479c0.795,0.335,1.586,0.692,2.368,1.074c0.782,0.384,1.56,0.782,2.327,1.202
	c0.762,0.425,1.528,0.851,2.277,1.299c0.745,0.454,1.497,0.899,2.242,1.358l2.227,1.37c-1.283-0.851-2.565-1.695-3.83-2.578
	c-0.336-0.229-0.671-0.466-1.006-0.696l-1.652-1.181c-0.713-0.511-1.433-1.022-2.174-1.51c-0.183-0.123-0.378-0.233-0.564-0.354
	c-0.75-0.514-1.502-1.024-2.251-1.542c-1.285-0.889-2.593-1.727-3.914-2.55l-1.989-1.243c-0.646-0.408-1.301-0.808-1.931-1.242
	c-1.276-0.854-2.51-1.766-3.713-2.73c-1.201-0.958-2.371-1.963-3.516-3.003c-1.154-1.031-2.292-2.082-3.41-3.168l-3.365-3.267
	c-1.13-1.099-2.224-2.21-3.401-3.307c-2.327-2.193-4.737-4.25-7.046-6.367c-1.155-1.064-2.273-2.148-3.336-3.279
	c-0.529-0.563-1.047-1.147-1.54-1.729c-0.24-0.296-0.487-0.578-0.725-0.887l-0.717-0.927c-0.959-1.286-1.936-2.537-2.848-3.794
	c-0.617-0.856-1.182-1.728-1.687-2.62c2.25,0.283,4.496,0.691,6.723,1.202c2.703,0.633,5.39,1.377,8.038,2.236
	c2.641,0.86,5.262,1.811,7.845,2.808c2.587,1.014,5.146,2.07,7.673,3.177c1.271,0.54,2.515,1.135,3.769,1.698
	c1.247,0.576,2.476,1.189,3.712,1.781l3.648,1.869c1.195,0.658,2.408,1.291,3.581,1.968l1.75,1.013
	c0.584,0.332,1.169,0.678,1.752,1.046l1.75,1.081l0.85,0.531l0.862,0.55c2.289,1.469,4.568,2.945,6.829,4.439
	c4.504,2.982,8.922,6.055,13.18,9.297c2.124,1.613,4.222,3.252,6.284,4.925c1.023,0.839,2.046,1.683,3.045,2.547
	c1.02,0.841,2.001,1.719,2.992,2.584c0.974,0.889,1.942,1.727,2.913,2.65c0.97,0.92,1.912,1.827,2.899,2.743l2.914,2.701
	c0.969,0.887,1.928,1.784,2.862,2.695c1.881,1.814,3.714,3.669,5.37,5.655c0.82,0.999,1.616,2.018,2.289,3.112
	c0.675,1.096,1.248,2.238,1.528,3.514l0.077-0.008l0.041-0.004C110.773,115.513,110.672,114.841,110.511,114.198z"/>
</svg>
